<?xml version="1.0" encoding="iso-8859-1"?>
<!-- Generator: Adobe Illustrator 22.0.1, SVG Export Plug-In . SVG Version: 6.00 Build 0)  -->
<svg version="1.1" xmlns="http://www.w3.org/2000/svg" xmlns:xlink="http://www.w3.org/1999/xlink" x="0px" y="0px"
	 viewBox="0 0 128 128" style="enable-background:new 0 0 128 128;" xml:space="preserve">
<g id="_x31_5">
	<rect x="8.21" y="24.626" style="fill:#B7E1E5;" width="111.569" height="59.33"/>
	<path style="fill:#1D252C;" d="M125.761,16.482H2.239C1.003,16.482,0,17.485,0,18.721v72.011c0,1.236,1.003,2.239,2.239,2.239
		h44.596v14.069H35.417v4.478h57.166v-4.478H81.164V92.971h44.596c1.236,0,2.239-1.003,2.239-2.239V18.721
		C128,17.485,126.997,16.482,125.761,16.482z M76.687,107.04H51.313V92.971h25.374V107.04z M123.522,88.493H4.478V20.96h119.044
		V88.493z M8.21,85.448h111.569c0.825,0,1.493-0.668,1.493-1.493v-59.33c0-0.825-0.668-1.493-1.493-1.493H8.21
		c-0.825,0-1.493,0.668-1.493,1.493v59.33C6.717,84.781,7.385,85.448,8.21,85.448z M9.702,26.119h108.584v56.345H9.702V26.119z"/>
</g>
<g id="Layer_1">
</g>
</svg>
